<?xml version="1.0" standalone="no"?>
<!DOCTYPE svg PUBLIC "-//W3C//DTD SVG 20010904//EN"
 "http://www.w3.org/TR/2001/REC-SVG-20010904/DTD/svg10.dtd">
<svg version="1.0" xmlns="http://www.w3.org/2000/svg"
 width="1080.000000pt" height="1080.000000pt" viewBox="0 0 1080.000000 1080.000000"
 preserveAspectRatio="xMidYMid meet">
<metadata>
Created by potrace 1.14, written by Peter Selinger 2001-2017
</metadata>
<g transform="translate(0.000000,1080.000000) scale(0.100000,-0.100000)"
fill="#000000" stroke="none">
<path d="M5128 10796 c-1 -2 -50 -6 -108 -10 -58 -4 -123 -9 -145 -11 -128
-14 -159 -17 -250 -30 -55 -8 -125 -19 -155 -25 -30 -6 -68 -13 -85 -16 -56
-9 -170 -34 -255 -55 -47 -11 -92 -22 -100 -24 -142 -30 -578 -181 -755 -260
-69 -31 -108 -48 -115 -49 -32 -7 -379 -190 -520 -274 -77 -46 -313 -198 -340
-219 -8 -6 -73 -55 -145 -109 -230 -172 -329 -259 -566 -494 -342 -341 -591
-659 -834 -1065 -383 -641 -649 -1432 -720 -2145 -4 -36 -8 -76 -11 -90 -25
-158 -25 -831 0 -1035 2 -16 7 -61 11 -98 3 -37 8 -76 9 -85 5 -25 16 -101 21
-147 5 -41 8 -56 51 -265 152 -751 483 -1483 957 -2120 55 -74 105 -140 111
-147 6 -6 27 -31 46 -54 128 -157 447 -489 581 -604 25 -22 72 -62 104 -90
221 -191 611 -461 865 -598 453 -246 824 -392 1310 -516 124 -32 322 -73 415
-86 11 -2 34 -6 50 -8 27 -5 49 -8 155 -23 19 -2 58 -7 85 -10 28 -3 66 -7 85
-9 106 -14 276 -20 525 -20 285 0 412 6 615 30 30 4 71 9 90 11 19 2 53 7 75
11 22 3 47 7 55 8 26 3 129 21 170 30 14 3 36 7 50 10 121 23 328 72 425 102
169 51 401 128 403 135 2 4 10 8 18 8 49 0 505 210 729 335 112 63 304 181
332 205 7 5 15 10 18 10 3 0 60 39 126 88 67 48 131 94 143 102 32 22 233 185
306 249 70 60 413 401 471 466 37 43 150 177 178 210 9 11 50 65 91 120 41 55
78 102 81 105 9 8 229 340 229 346 0 3 15 28 33 57 109 171 279 517 382 777
143 363 251 759 305 1115 12 79 21 134 25 155 2 9 6 53 10 96 4 43 9 88 11 99
19 99 26 695 11 900 -11 142 -24 269 -32 315 -2 8 -6 38 -9 65 -8 58 -10 68
-31 195 -45 265 -185 773 -260 945 -7 17 -30 73 -50 125 -113 291 -331 698
-535 1000 -75 111 -241 333 -310 414 -185 219 -462 501 -645 656 -111 93 -154
128 -265 211 -142 108 -330 235 -440 300 -41 24 -76 47 -78 51 -2 5 -8 8 -12
8 -5 0 -33 14 -62 31 -84 50 -364 191 -473 238 -55 24 -118 52 -140 61 -61 26
-257 98 -375 136 -217 71 -523 148 -712 179 -18 3 -44 7 -58 10 -31 6 -71 12
-130 20 -25 3 -56 8 -70 10 -14 2 -49 6 -77 9 -29 3 -75 9 -102 12 -28 3 -74
7 -103 10 -61 5 -684 14 -690 10z"/>
</g>
</svg>
