<?xml version="1.0" standalone="no"?>
<!DOCTYPE svg PUBLIC "-//W3C//DTD SVG 20010904//EN"
 "http://www.w3.org/TR/2001/REC-SVG-20010904/DTD/svg10.dtd">
<svg version="1.0" xmlns="http://www.w3.org/2000/svg"
 width="1080.000000pt" height="1080.000000pt" viewBox="0 0 1080.000000 1080.000000"
 preserveAspectRatio="xMidYMid meet">
<metadata>
Created by potrace 1.14, written by Peter Selinger 2001-2017
</metadata>
<g transform="translate(0.000000,1080.000000) scale(0.100000,-0.100000)"
fill="#000000" stroke="none">
<path d="M5128 10555 c-1 -1 -50 -5 -108 -9 -58 -3 -123 -8 -145 -10 -48 -6
-121 -14 -190 -22 -81 -9 -330 -52 -460 -80 -66 -14 -129 -27 -141 -29 -54
-12 -323 -91 -439 -130 -143 -48 -325 -117 -437 -166 -106 -46 -241 -108 -258
-118 -9 -4 -63 -33 -120 -63 -129 -68 -201 -109 -308 -176 -46 -29 -87 -52
-92 -52 -5 0 -10 -3 -12 -7 -1 -5 -43 -35 -93 -68 -78 -51 -361 -259 -375
-274 -3 -4 -32 -28 -65 -56 -239 -199 -513 -473 -685 -685 -19 -24 -40 -48
-45 -54 -13 -13 -161 -208 -194 -255 -433 -612 -725 -1287 -867 -2005 -4 -23
-32 -191 -40 -246 -3 -19 -7 -46 -10 -60 -2 -14 -6 -52 -9 -85 -3 -33 -8 -69
-10 -80 -26 -128 -26 -915 0 -1015 2 -8 7 -51 10 -95 4 -44 8 -82 10 -85 2 -3
6 -30 9 -60 5 -49 16 -113 31 -190 4 -23 19 -95 31 -160 3 -14 10 -43 16 -65
5 -22 11 -47 13 -55 33 -167 166 -570 255 -775 9 -22 28 -65 41 -95 84 -196
270 -536 405 -739 27 -41 54 -81 59 -90 17 -26 231 -315 251 -338 11 -12 28
-32 38 -45 317 -383 730 -757 1132 -1022 54 -36 104 -69 109 -74 31 -25 321
-191 445 -254 119 -61 365 -174 455 -208 11 -5 36 -15 55 -23 116 -50 514
-178 628 -202 9 -2 73 -17 142 -33 69 -17 141 -33 160 -36 40 -6 180 -31 225
-40 17 -3 50 -8 75 -11 25 -3 61 -7 80 -10 19 -3 62 -7 95 -11 33 -3 71 -7 84
-9 66 -11 295 -19 531 -19 285 0 401 6 605 29 22 3 63 7 90 10 53 6 319 50
370 61 17 4 37 7 45 9 65 8 463 111 526 136 16 6 39 13 50 15 40 7 347 122
479 179 303 130 646 317 900 490 146 100 300 213 366 269 19 17 55 47 80 68
222 182 496 456 669 668 25 30 47 57 51 60 15 13 174 226 239 320 78 113 220
336 220 346 0 3 9 18 19 33 33 47 187 350 246 486 124 283 231 601 289 855 15
63 31 133 36 155 16 68 33 159 45 240 3 22 10 67 15 100 5 33 12 87 15 120 4
33 8 74 10 90 27 208 27 782 0 1012 -20 181 -20 183 -41 313 -9 52 -18 109
-20 125 -7 42 -41 192 -69 305 -71 288 -193 637 -311 887 -24 51 -44 97 -44
102 0 5 -3 11 -7 13 -5 2 -34 55 -65 118 -61 122 -156 286 -253 435 -55 86
-212 307 -247 350 -9 11 -53 65 -98 120 -185 226 -478 524 -670 681 -19 16
-41 35 -48 42 -8 7 -30 25 -50 40 -21 15 -39 30 -42 33 -17 20 -266 199 -375
270 -166 108 -186 121 -210 135 -11 6 -60 34 -110 63 -253 147 -642 320 -955
424 -179 60 -207 69 -410 121 -119 30 -162 40 -270 61 -52 10 -241 43 -290 49
-87 13 -201 26 -270 32 -41 3 -93 8 -115 10 -49 5 -672 14 -677 9z"/>
</g>
</svg>
