<svg width="1080" height="1080" viewBox="0 0 1080 1080" fill="none" xmlns="http://www.w3.org/2000/svg">
<circle cx="540" cy="540" r="540" fill="black"/>
<path d="M587.211 574.008H400.729L399.731 497.607H556.296C583.886 497.607 606.49 495.011 624.108 489.819C641.726 484.379 654.856 476.591 663.499 466.453C672.474 456.069 676.961 443.459 676.961 428.624C676.961 411.81 672.64 398.212 663.997 387.827C655.687 377.442 642.557 369.901 624.607 365.203C606.989 360.505 584.219 358.157 556.296 358.157H452.584V811H303V271H556.296C598.512 271 636.241 273.967 669.482 279.901C703.055 285.835 731.476 294.86 754.745 306.975C778.014 319.091 795.798 334.42 808.097 352.964C820.396 371.261 826.546 393.019 826.546 418.239C826.546 440.492 819.731 461.014 806.103 479.805C792.806 498.596 771.698 513.926 742.778 525.794C714.191 537.662 676.795 544.214 630.59 545.451L587.211 574.008ZM580.729 811H359.842L418.18 724.214H580.729C606.989 724.214 628.429 721.124 645.05 714.942C661.67 708.514 673.97 699.86 681.947 688.981C689.925 678.102 693.914 665.615 693.914 651.522C693.914 635.698 690.258 621.975 682.945 610.354C675.964 598.734 664.662 589.832 649.039 583.651C633.416 577.223 612.806 574.008 587.211 574.008H443.111L444.108 497.607H623.609L658.014 527.648C702.224 527.154 737.792 532.964 764.717 545.08C791.975 556.948 811.753 572.401 824.053 591.44C836.684 610.478 843 630.876 843 652.635C843 687.25 832.862 716.426 812.585 740.162C792.307 763.651 762.557 781.33 723.332 793.198C684.44 805.066 636.906 811 580.729 811Z" fill="white"/>
</svg>
